<mxfile host="app.diagrams.net" modified="2021-03-18T01:15:04.118Z" agent="5.0 (Macintosh; Intel Mac OS X 10_15_7) AppleWebKit/537.36 (KHTML, like Gecko) Chrome/88.0.4324.192 Safari/537.36" etag="kNHUAbX0VWRTLg24Si4u" version="14.4.8" type="github" pages="2">
  <diagram name="授权码模式校验" id="13e1069c-82ec-6db2-03f1-153e76fe0fe0">
    <mxGraphModel dx="1426" dy="769" grid="1" gridSize="10" guides="1" tooltips="1" connect="1" arrows="1" fold="1" page="1" pageScale="1" pageWidth="1100" pageHeight="850" background="#ffffff" math="0" shadow="0">
      <root>
        <mxCell id="0" />
        <mxCell id="1" parent="0" />
        <mxCell id="X_UoV03OPIh3xsU8UVWF-6" value="" style="edgeStyle=orthogonalEdgeStyle;rounded=0;orthogonalLoop=1;jettySize=auto;html=1;endArrow=none;endFill=0;" edge="1" parent="1" source="X_UoV03OPIh3xsU8UVWF-23">
          <mxGeometry relative="1" as="geometry">
            <mxPoint x="145" y="760" as="targetPoint" />
          </mxGeometry>
        </mxCell>
        <mxCell id="X_UoV03OPIh3xsU8UVWF-1" value="EU" style="html=1;" vertex="1" parent="1">
          <mxGeometry x="90" y="50" width="110" height="40" as="geometry" />
        </mxCell>
        <mxCell id="X_UoV03OPIh3xsU8UVWF-2" value="RP" style="html=1;" vertex="1" parent="1">
          <mxGeometry x="320" y="50" width="110" height="40" as="geometry" />
        </mxCell>
        <mxCell id="X_UoV03OPIh3xsU8UVWF-3" value="OP" style="html=1;" vertex="1" parent="1">
          <mxGeometry x="560" y="50" width="110" height="40" as="geometry" />
        </mxCell>
        <mxCell id="X_UoV03OPIh3xsU8UVWF-4" value="EndPoint" style="html=1;" vertex="1" parent="1">
          <mxGeometry x="780" y="50" width="110" height="40" as="geometry" />
        </mxCell>
        <mxCell id="X_UoV03OPIh3xsU8UVWF-7" value="" style="edgeStyle=orthogonalEdgeStyle;rounded=0;orthogonalLoop=1;jettySize=auto;html=1;endArrow=none;endFill=0;" edge="1" parent="1">
          <mxGeometry relative="1" as="geometry">
            <mxPoint x="380" y="90" as="sourcePoint" />
            <mxPoint x="380" y="760" as="targetPoint" />
          </mxGeometry>
        </mxCell>
        <mxCell id="X_UoV03OPIh3xsU8UVWF-8" value="" style="edgeStyle=orthogonalEdgeStyle;rounded=0;orthogonalLoop=1;jettySize=auto;html=1;endArrow=none;endFill=0;" edge="1" parent="1" source="X_UoV03OPIh3xsU8UVWF-37">
          <mxGeometry relative="1" as="geometry">
            <mxPoint x="614.5" y="90" as="sourcePoint" />
            <mxPoint x="614.5" y="760" as="targetPoint" />
          </mxGeometry>
        </mxCell>
        <mxCell id="X_UoV03OPIh3xsU8UVWF-9" value="" style="edgeStyle=orthogonalEdgeStyle;rounded=0;orthogonalLoop=1;jettySize=auto;html=1;endArrow=none;endFill=0;" edge="1" parent="1">
          <mxGeometry relative="1" as="geometry">
            <mxPoint x="840" y="90" as="sourcePoint" />
            <mxPoint x="840" y="760" as="targetPoint" />
          </mxGeometry>
        </mxCell>
        <mxCell id="X_UoV03OPIh3xsU8UVWF-10" value="" style="html=1;points=[];perimeter=orthogonalPerimeter;" vertex="1" parent="1">
          <mxGeometry x="380" y="120" width="10" height="40" as="geometry" />
        </mxCell>
        <mxCell id="X_UoV03OPIh3xsU8UVWF-11" value="EU访问第三方APP（RP）" style="html=1;verticalAlign=bottom;endArrow=block;entryX=0;entryY=0;" edge="1" target="X_UoV03OPIh3xsU8UVWF-10" parent="1">
          <mxGeometry relative="1" as="geometry">
            <mxPoint x="150" y="120" as="sourcePoint" />
          </mxGeometry>
        </mxCell>
        <mxCell id="X_UoV03OPIh3xsU8UVWF-12" value="是否同意RP连接OP账户" style="html=1;verticalAlign=bottom;endArrow=open;dashed=1;endSize=8;exitX=0;exitY=0.95;" edge="1" source="X_UoV03OPIh3xsU8UVWF-10" parent="1">
          <mxGeometry relative="1" as="geometry">
            <mxPoint x="150" y="158" as="targetPoint" />
          </mxGeometry>
        </mxCell>
        <mxCell id="X_UoV03OPIh3xsU8UVWF-14" value="" style="html=1;points=[];perimeter=orthogonalPerimeter;" vertex="1" parent="1">
          <mxGeometry x="380" y="200" width="10" height="270" as="geometry" />
        </mxCell>
        <mxCell id="X_UoV03OPIh3xsU8UVWF-15" value="用户点击同意" style="html=1;verticalAlign=bottom;endArrow=block;entryX=0;entryY=0;" edge="1" parent="1" target="X_UoV03OPIh3xsU8UVWF-14">
          <mxGeometry relative="1" as="geometry">
            <mxPoint x="150" y="200" as="sourcePoint" />
          </mxGeometry>
        </mxCell>
        <mxCell id="X_UoV03OPIh3xsU8UVWF-17" value="" style="html=1;points=[];perimeter=orthogonalPerimeter;" vertex="1" parent="1">
          <mxGeometry x="610" y="260" width="10" height="210" as="geometry" />
        </mxCell>
        <mxCell id="X_UoV03OPIh3xsU8UVWF-18" value="RP向OP发送一个授权请求" style="html=1;verticalAlign=bottom;endArrow=block;entryX=0;entryY=0;" edge="1" parent="1" target="X_UoV03OPIh3xsU8UVWF-17">
          <mxGeometry relative="1" as="geometry">
            <mxPoint x="390" y="260" as="sourcePoint" />
          </mxGeometry>
        </mxCell>
        <mxCell id="X_UoV03OPIh3xsU8UVWF-20" value="" style="html=1;points=[];perimeter=orthogonalPerimeter;" vertex="1" parent="1">
          <mxGeometry x="617" y="314" width="10" height="40" as="geometry" />
        </mxCell>
        <mxCell id="X_UoV03OPIh3xsU8UVWF-21" value="1.根据授权请求scope展示&lt;br&gt;请求范围，个人信息，邮箱等&lt;br&gt;2.判断登录态，没有登录态要先登录&lt;br&gt;3.有登录态，展示授权画面" style="edgeStyle=orthogonalEdgeStyle;html=1;align=left;spacingLeft=2;endArrow=block;rounded=0;entryX=1;entryY=0;" edge="1" target="X_UoV03OPIh3xsU8UVWF-20" parent="1">
          <mxGeometry relative="1" as="geometry">
            <mxPoint x="620" y="269" as="sourcePoint" />
            <Array as="points">
              <mxPoint x="640" y="269" />
              <mxPoint x="640" y="314" />
            </Array>
          </mxGeometry>
        </mxCell>
        <mxCell id="X_UoV03OPIh3xsU8UVWF-23" value="" style="html=1;points=[];perimeter=orthogonalPerimeter;" vertex="1" parent="1">
          <mxGeometry x="140" y="363" width="10" height="57" as="geometry" />
        </mxCell>
        <mxCell id="X_UoV03OPIh3xsU8UVWF-24" value="" style="edgeStyle=orthogonalEdgeStyle;rounded=0;orthogonalLoop=1;jettySize=auto;html=1;endArrow=none;endFill=0;" edge="1" parent="1" source="X_UoV03OPIh3xsU8UVWF-1" target="X_UoV03OPIh3xsU8UVWF-23">
          <mxGeometry relative="1" as="geometry">
            <mxPoint x="145" y="90" as="sourcePoint" />
            <mxPoint x="145" y="760" as="targetPoint" />
          </mxGeometry>
        </mxCell>
        <mxCell id="X_UoV03OPIh3xsU8UVWF-25" value="OP展示授权页面给用户" style="html=1;verticalAlign=bottom;endArrow=block;entryX=1;entryY=0.211;entryDx=0;entryDy=0;entryPerimeter=0;" edge="1" parent="1" target="X_UoV03OPIh3xsU8UVWF-23">
          <mxGeometry relative="1" as="geometry">
            <mxPoint x="606" y="375" as="sourcePoint" />
            <mxPoint x="620" y="270.0000000000002" as="targetPoint" />
          </mxGeometry>
        </mxCell>
        <mxCell id="X_UoV03OPIh3xsU8UVWF-26" value="用户同意授权（如果未登录，先登录）" style="html=1;verticalAlign=bottom;endArrow=open;dashed=1;endSize=8;exitX=1.1;exitY=0.807;exitDx=0;exitDy=0;exitPerimeter=0;" edge="1" parent="1" source="X_UoV03OPIh3xsU8UVWF-23">
          <mxGeometry relative="1" as="geometry">
            <mxPoint x="606" y="409" as="targetPoint" />
            <mxPoint x="390" y="168" as="sourcePoint" />
          </mxGeometry>
        </mxCell>
        <mxCell id="X_UoV03OPIh3xsU8UVWF-27" value="OP返回授权码给RP" style="html=1;verticalAlign=bottom;endArrow=open;dashed=1;endSize=8;exitX=0;exitY=0.95;" edge="1" parent="1">
          <mxGeometry relative="1" as="geometry">
            <mxPoint x="390" y="453" as="targetPoint" />
            <mxPoint x="610" y="453" as="sourcePoint" />
          </mxGeometry>
        </mxCell>
        <mxCell id="X_UoV03OPIh3xsU8UVWF-28" value="" style="html=1;points=[];perimeter=orthogonalPerimeter;" vertex="1" parent="1">
          <mxGeometry x="610" y="500" width="10" height="80" as="geometry" />
        </mxCell>
        <mxCell id="X_UoV03OPIh3xsU8UVWF-29" value="使用授权码去申请token和id_token" style="html=1;verticalAlign=bottom;endArrow=block;entryX=0;entryY=0;" edge="1" target="X_UoV03OPIh3xsU8UVWF-28" parent="1">
          <mxGeometry relative="1" as="geometry">
            <mxPoint x="380" y="500" as="sourcePoint" />
          </mxGeometry>
        </mxCell>
        <mxCell id="X_UoV03OPIh3xsU8UVWF-30" value="返回access_token和id_token" style="html=1;verticalAlign=bottom;endArrow=open;dashed=1;endSize=8;exitX=0;exitY=0.95;" edge="1" source="X_UoV03OPIh3xsU8UVWF-28" parent="1">
          <mxGeometry relative="1" as="geometry">
            <mxPoint x="380" y="576" as="targetPoint" />
          </mxGeometry>
        </mxCell>
        <mxCell id="X_UoV03OPIh3xsU8UVWF-31" value="" style="html=1;points=[];perimeter=orthogonalPerimeter;" vertex="1" parent="1">
          <mxGeometry x="840" y="610" width="10" height="130" as="geometry" />
        </mxCell>
        <mxCell id="X_UoV03OPIh3xsU8UVWF-32" value="使用access token去请求数据" style="html=1;verticalAlign=bottom;endArrow=block;entryX=0;entryY=0;" edge="1" parent="1" target="X_UoV03OPIh3xsU8UVWF-31">
          <mxGeometry relative="1" as="geometry">
            <mxPoint x="380" y="610" as="sourcePoint" />
          </mxGeometry>
        </mxCell>
        <mxCell id="X_UoV03OPIh3xsU8UVWF-33" value="返回数据" style="html=1;verticalAlign=bottom;endArrow=open;dashed=1;endSize=8;exitX=0;exitY=0.95;" edge="1" parent="1" source="X_UoV03OPIh3xsU8UVWF-31">
          <mxGeometry relative="1" as="geometry">
            <mxPoint x="380" y="734" as="targetPoint" />
          </mxGeometry>
        </mxCell>
        <mxCell id="X_UoV03OPIh3xsU8UVWF-37" value="" style="html=1;points=[];perimeter=orthogonalPerimeter;" vertex="1" parent="1">
          <mxGeometry x="610" y="640" width="10" height="60" as="geometry" />
        </mxCell>
        <mxCell id="X_UoV03OPIh3xsU8UVWF-38" value="" style="edgeStyle=orthogonalEdgeStyle;rounded=0;orthogonalLoop=1;jettySize=auto;html=1;endArrow=none;endFill=0;" edge="1" parent="1" target="X_UoV03OPIh3xsU8UVWF-37">
          <mxGeometry relative="1" as="geometry">
            <mxPoint x="614.5" y="90" as="sourcePoint" />
            <mxPoint x="614.5" y="760" as="targetPoint" />
          </mxGeometry>
        </mxCell>
        <mxCell id="X_UoV03OPIh3xsU8UVWF-39" value="校验access token" style="html=1;verticalAlign=bottom;endArrow=block;entryX=1.1;entryY=0.3;entryDx=0;entryDy=0;entryPerimeter=0;exitX=0.1;exitY=0.362;exitDx=0;exitDy=0;exitPerimeter=0;" edge="1" parent="1">
          <mxGeometry relative="1" as="geometry">
            <mxPoint x="841" y="650.06" as="sourcePoint" />
            <mxPoint x="621" y="651" as="targetPoint" />
          </mxGeometry>
        </mxCell>
        <mxCell id="X_UoV03OPIh3xsU8UVWF-40" value="校验通过" style="html=1;verticalAlign=bottom;endArrow=open;dashed=1;endSize=8;exitX=1.1;exitY=0.783;exitDx=0;exitDy=0;exitPerimeter=0;" edge="1" parent="1" source="X_UoV03OPIh3xsU8UVWF-37">
          <mxGeometry relative="1" as="geometry">
            <mxPoint x="836" y="686" as="targetPoint" />
            <mxPoint x="620" y="586" as="sourcePoint" />
          </mxGeometry>
        </mxCell>
      </root>
    </mxGraphModel>
  </diagram>
  <diagram id="rbFuH_cYq-JFTQFVsDSB" name="简化模式 Implicit">
    <mxGraphModel dx="1426" dy="826" grid="1" gridSize="10" guides="1" tooltips="1" connect="1" arrows="1" fold="1" page="1" pageScale="1" pageWidth="827" pageHeight="1169" math="0" shadow="0">
      <root>
        <mxCell id="Zi6jA2lRosay0EAxy1zT-0" />
        <mxCell id="Zi6jA2lRosay0EAxy1zT-1" parent="Zi6jA2lRosay0EAxy1zT-0" />
        <mxCell id="tEZYlEP-FlHGUVkTLk2f-0" value="" style="edgeStyle=orthogonalEdgeStyle;rounded=0;orthogonalLoop=1;jettySize=auto;html=1;endArrow=none;endFill=0;" edge="1" parent="Zi6jA2lRosay0EAxy1zT-1" source="tEZYlEP-FlHGUVkTLk2f-17">
          <mxGeometry relative="1" as="geometry">
            <mxPoint x="145" y="760" as="targetPoint" />
          </mxGeometry>
        </mxCell>
        <mxCell id="tEZYlEP-FlHGUVkTLk2f-1" value="EU" style="html=1;" vertex="1" parent="Zi6jA2lRosay0EAxy1zT-1">
          <mxGeometry x="90" y="50" width="110" height="40" as="geometry" />
        </mxCell>
        <mxCell id="tEZYlEP-FlHGUVkTLk2f-2" value="RP" style="html=1;" vertex="1" parent="Zi6jA2lRosay0EAxy1zT-1">
          <mxGeometry x="320" y="50" width="110" height="40" as="geometry" />
        </mxCell>
        <mxCell id="tEZYlEP-FlHGUVkTLk2f-3" value="OP" style="html=1;" vertex="1" parent="Zi6jA2lRosay0EAxy1zT-1">
          <mxGeometry x="560" y="50" width="110" height="40" as="geometry" />
        </mxCell>
        <mxCell id="tEZYlEP-FlHGUVkTLk2f-4" value="EndPoint" style="html=1;" vertex="1" parent="Zi6jA2lRosay0EAxy1zT-1">
          <mxGeometry x="780" y="50" width="110" height="40" as="geometry" />
        </mxCell>
        <mxCell id="tEZYlEP-FlHGUVkTLk2f-5" value="" style="edgeStyle=orthogonalEdgeStyle;rounded=0;orthogonalLoop=1;jettySize=auto;html=1;endArrow=none;endFill=0;" edge="1" parent="Zi6jA2lRosay0EAxy1zT-1">
          <mxGeometry relative="1" as="geometry">
            <mxPoint x="380" y="90" as="sourcePoint" />
            <mxPoint x="380" y="760" as="targetPoint" />
          </mxGeometry>
        </mxCell>
        <mxCell id="tEZYlEP-FlHGUVkTLk2f-6" value="" style="edgeStyle=orthogonalEdgeStyle;rounded=0;orthogonalLoop=1;jettySize=auto;html=1;endArrow=none;endFill=0;" edge="1" parent="Zi6jA2lRosay0EAxy1zT-1" source="tEZYlEP-FlHGUVkTLk2f-28">
          <mxGeometry relative="1" as="geometry">
            <mxPoint x="614.5" y="90" as="sourcePoint" />
            <mxPoint x="614.5" y="760" as="targetPoint" />
          </mxGeometry>
        </mxCell>
        <mxCell id="tEZYlEP-FlHGUVkTLk2f-7" value="" style="edgeStyle=orthogonalEdgeStyle;rounded=0;orthogonalLoop=1;jettySize=auto;html=1;endArrow=none;endFill=0;" edge="1" parent="Zi6jA2lRosay0EAxy1zT-1" source="tEZYlEP-FlHGUVkTLk2f-25">
          <mxGeometry relative="1" as="geometry">
            <mxPoint x="840" y="90" as="sourcePoint" />
            <mxPoint x="840" y="760" as="targetPoint" />
          </mxGeometry>
        </mxCell>
        <mxCell id="tEZYlEP-FlHGUVkTLk2f-8" value="" style="html=1;points=[];perimeter=orthogonalPerimeter;" vertex="1" parent="Zi6jA2lRosay0EAxy1zT-1">
          <mxGeometry x="380" y="120" width="10" height="40" as="geometry" />
        </mxCell>
        <mxCell id="tEZYlEP-FlHGUVkTLk2f-9" value="EU访问第三方APP（RP）" style="html=1;verticalAlign=bottom;endArrow=block;entryX=0;entryY=0;" edge="1" parent="Zi6jA2lRosay0EAxy1zT-1" target="tEZYlEP-FlHGUVkTLk2f-8">
          <mxGeometry relative="1" as="geometry">
            <mxPoint x="150" y="120" as="sourcePoint" />
          </mxGeometry>
        </mxCell>
        <mxCell id="tEZYlEP-FlHGUVkTLk2f-10" value="是否同意RP连接OP账户" style="html=1;verticalAlign=bottom;endArrow=open;dashed=1;endSize=8;exitX=0;exitY=0.95;" edge="1" parent="Zi6jA2lRosay0EAxy1zT-1" source="tEZYlEP-FlHGUVkTLk2f-8">
          <mxGeometry relative="1" as="geometry">
            <mxPoint x="150" y="158" as="targetPoint" />
          </mxGeometry>
        </mxCell>
        <mxCell id="tEZYlEP-FlHGUVkTLk2f-11" value="" style="html=1;points=[];perimeter=orthogonalPerimeter;" vertex="1" parent="Zi6jA2lRosay0EAxy1zT-1">
          <mxGeometry x="380" y="200" width="10" height="270" as="geometry" />
        </mxCell>
        <mxCell id="tEZYlEP-FlHGUVkTLk2f-12" value="用户点击同意" style="html=1;verticalAlign=bottom;endArrow=block;entryX=0;entryY=0;" edge="1" parent="Zi6jA2lRosay0EAxy1zT-1" target="tEZYlEP-FlHGUVkTLk2f-11">
          <mxGeometry relative="1" as="geometry">
            <mxPoint x="150" y="200" as="sourcePoint" />
          </mxGeometry>
        </mxCell>
        <mxCell id="tEZYlEP-FlHGUVkTLk2f-13" value="" style="html=1;points=[];perimeter=orthogonalPerimeter;" vertex="1" parent="Zi6jA2lRosay0EAxy1zT-1">
          <mxGeometry x="610" y="260" width="10" height="210" as="geometry" />
        </mxCell>
        <mxCell id="tEZYlEP-FlHGUVkTLk2f-14" value="RP向OP发送一个授权请求" style="html=1;verticalAlign=bottom;endArrow=block;entryX=0;entryY=0;" edge="1" parent="Zi6jA2lRosay0EAxy1zT-1" target="tEZYlEP-FlHGUVkTLk2f-13">
          <mxGeometry relative="1" as="geometry">
            <mxPoint x="390" y="260" as="sourcePoint" />
          </mxGeometry>
        </mxCell>
        <mxCell id="tEZYlEP-FlHGUVkTLk2f-15" value="" style="html=1;points=[];perimeter=orthogonalPerimeter;" vertex="1" parent="Zi6jA2lRosay0EAxy1zT-1">
          <mxGeometry x="617" y="314" width="10" height="40" as="geometry" />
        </mxCell>
        <mxCell id="tEZYlEP-FlHGUVkTLk2f-16" value="1.根据授权请求scope展示&lt;br&gt;请求范围，个人信息，邮箱等&lt;br&gt;2.判断登录态，没有登录态要先登录&lt;br&gt;3.有登录态，展示授权画面" style="edgeStyle=orthogonalEdgeStyle;html=1;align=left;spacingLeft=2;endArrow=block;rounded=0;entryX=1;entryY=0;" edge="1" parent="Zi6jA2lRosay0EAxy1zT-1" target="tEZYlEP-FlHGUVkTLk2f-15">
          <mxGeometry relative="1" as="geometry">
            <mxPoint x="620" y="269" as="sourcePoint" />
            <Array as="points">
              <mxPoint x="640" y="269" />
              <mxPoint x="640" y="314" />
            </Array>
          </mxGeometry>
        </mxCell>
        <mxCell id="tEZYlEP-FlHGUVkTLk2f-17" value="" style="html=1;points=[];perimeter=orthogonalPerimeter;" vertex="1" parent="Zi6jA2lRosay0EAxy1zT-1">
          <mxGeometry x="140" y="363" width="10" height="57" as="geometry" />
        </mxCell>
        <mxCell id="tEZYlEP-FlHGUVkTLk2f-18" value="" style="edgeStyle=orthogonalEdgeStyle;rounded=0;orthogonalLoop=1;jettySize=auto;html=1;endArrow=none;endFill=0;" edge="1" parent="Zi6jA2lRosay0EAxy1zT-1" source="tEZYlEP-FlHGUVkTLk2f-1" target="tEZYlEP-FlHGUVkTLk2f-17">
          <mxGeometry relative="1" as="geometry">
            <mxPoint x="145" y="90" as="sourcePoint" />
            <mxPoint x="145" y="760" as="targetPoint" />
          </mxGeometry>
        </mxCell>
        <mxCell id="tEZYlEP-FlHGUVkTLk2f-19" value="OP展示授权页面给用户" style="html=1;verticalAlign=bottom;endArrow=block;entryX=1;entryY=0.211;entryDx=0;entryDy=0;entryPerimeter=0;" edge="1" parent="Zi6jA2lRosay0EAxy1zT-1" target="tEZYlEP-FlHGUVkTLk2f-17">
          <mxGeometry relative="1" as="geometry">
            <mxPoint x="606" y="375" as="sourcePoint" />
            <mxPoint x="620" y="270.0000000000002" as="targetPoint" />
          </mxGeometry>
        </mxCell>
        <mxCell id="tEZYlEP-FlHGUVkTLk2f-20" value="用户同意授权（如果未登录，先登录）" style="html=1;verticalAlign=bottom;endArrow=open;dashed=1;endSize=8;exitX=1.1;exitY=0.807;exitDx=0;exitDy=0;exitPerimeter=0;" edge="1" parent="Zi6jA2lRosay0EAxy1zT-1" source="tEZYlEP-FlHGUVkTLk2f-17">
          <mxGeometry relative="1" as="geometry">
            <mxPoint x="606" y="409" as="targetPoint" />
            <mxPoint x="390" y="168" as="sourcePoint" />
          </mxGeometry>
        </mxCell>
        <mxCell id="tEZYlEP-FlHGUVkTLk2f-26" value="使用access token去请求数据" style="html=1;verticalAlign=bottom;endArrow=block;entryX=0;entryY=0;" edge="1" parent="Zi6jA2lRosay0EAxy1zT-1">
          <mxGeometry relative="1" as="geometry">
            <mxPoint x="380" y="532" as="sourcePoint" />
            <mxPoint x="840" y="532" as="targetPoint" />
          </mxGeometry>
        </mxCell>
        <mxCell id="tEZYlEP-FlHGUVkTLk2f-27" value="返回数据" style="html=1;verticalAlign=bottom;endArrow=open;dashed=1;endSize=8;exitX=0;exitY=0.95;" edge="1" parent="Zi6jA2lRosay0EAxy1zT-1">
          <mxGeometry relative="1" as="geometry">
            <mxPoint x="380" y="656" as="targetPoint" />
            <mxPoint x="840" y="655.5" as="sourcePoint" />
          </mxGeometry>
        </mxCell>
        <mxCell id="tEZYlEP-FlHGUVkTLk2f-28" value="" style="html=1;points=[];perimeter=orthogonalPerimeter;" vertex="1" parent="Zi6jA2lRosay0EAxy1zT-1">
          <mxGeometry x="610" y="562" width="10" height="60" as="geometry" />
        </mxCell>
        <mxCell id="tEZYlEP-FlHGUVkTLk2f-29" value="" style="edgeStyle=orthogonalEdgeStyle;rounded=0;orthogonalLoop=1;jettySize=auto;html=1;endArrow=none;endFill=0;" edge="1" parent="Zi6jA2lRosay0EAxy1zT-1" target="tEZYlEP-FlHGUVkTLk2f-28">
          <mxGeometry relative="1" as="geometry">
            <mxPoint x="614.5" y="90" as="sourcePoint" />
            <mxPoint x="614.5" y="760" as="targetPoint" />
          </mxGeometry>
        </mxCell>
        <mxCell id="tEZYlEP-FlHGUVkTLk2f-30" value="校验access token" style="html=1;verticalAlign=bottom;endArrow=block;entryX=1.1;entryY=0.3;entryDx=0;entryDy=0;entryPerimeter=0;exitX=0.1;exitY=0.362;exitDx=0;exitDy=0;exitPerimeter=0;" edge="1" parent="Zi6jA2lRosay0EAxy1zT-1">
          <mxGeometry relative="1" as="geometry">
            <mxPoint x="841" y="572.06" as="sourcePoint" />
            <mxPoint x="621" y="573" as="targetPoint" />
          </mxGeometry>
        </mxCell>
        <mxCell id="tEZYlEP-FlHGUVkTLk2f-31" value="校验通过" style="html=1;verticalAlign=bottom;endArrow=open;dashed=1;endSize=8;exitX=1.1;exitY=0.783;exitDx=0;exitDy=0;exitPerimeter=0;" edge="1" parent="Zi6jA2lRosay0EAxy1zT-1" source="tEZYlEP-FlHGUVkTLk2f-28">
          <mxGeometry relative="1" as="geometry">
            <mxPoint x="836" y="608" as="targetPoint" />
            <mxPoint x="620" y="508" as="sourcePoint" />
          </mxGeometry>
        </mxCell>
        <mxCell id="tEZYlEP-FlHGUVkTLk2f-32" value="返回access_token和id_token" style="html=1;verticalAlign=bottom;endArrow=open;dashed=1;endSize=8;" edge="1" parent="Zi6jA2lRosay0EAxy1zT-1">
          <mxGeometry relative="1" as="geometry">
            <mxPoint x="390" y="460" as="targetPoint" />
            <mxPoint x="610" y="460" as="sourcePoint" />
          </mxGeometry>
        </mxCell>
        <mxCell id="tEZYlEP-FlHGUVkTLk2f-25" value="" style="html=1;points=[];perimeter=orthogonalPerimeter;" vertex="1" parent="Zi6jA2lRosay0EAxy1zT-1">
          <mxGeometry x="840" y="527" width="10" height="130" as="geometry" />
        </mxCell>
        <mxCell id="tEZYlEP-FlHGUVkTLk2f-33" value="" style="edgeStyle=orthogonalEdgeStyle;rounded=0;orthogonalLoop=1;jettySize=auto;html=1;endArrow=none;endFill=0;" edge="1" parent="Zi6jA2lRosay0EAxy1zT-1" target="tEZYlEP-FlHGUVkTLk2f-25">
          <mxGeometry relative="1" as="geometry">
            <mxPoint x="840" y="90" as="sourcePoint" />
            <mxPoint x="840" y="760" as="targetPoint" />
          </mxGeometry>
        </mxCell>
      </root>
    </mxGraphModel>
  </diagram>
</mxfile>
